<svg xmlns="http://www.w3.org/2000/svg" width="45" height="46" viewBox="0 0 45 46" fill="none"><path fill-rule="evenodd" clip-rule="evenodd" d="M22.5 45.5C34.9264 45.5 45 35.4264 45 23C45 10.5736 34.9264 0.5 22.5 0.5C10.0736 0.5 0 10.5736 0 23C0 35.4264 10.0736 45.5 22.5 45.5ZM23.5677 9.45485L8.62636 18.0876L8.35366 18.3846C8.20578 18.5461 7.98416 18.8327 7.86504 19.0221C7.72761 19.2347 7.59279 19.5727 7.50099 19.9303C7.39237 20.3357 7.35548 20.6235 7.37536 20.9547C7.39283 21.2048 7.46472 21.5821 7.52631 21.7877C7.60163 22.017 7.79839 22.4238 8.04568 22.8521C8.26551 23.2329 8.5366 23.6474 8.64283 23.7765C8.75382 23.9028 8.9831 24.1131 9.14865 24.2459C9.3142 24.3788 9.6006 24.5561 9.77822 24.6439C9.95584 24.7318 10.2951 24.8468 10.5319 24.8941C10.7638 24.9442 11.1375 24.976 11.3583 24.9627C11.5819 24.9542 11.9116 24.9098 12.0989 24.8715C12.4169 24.7958 12.7861 24.589 19.9773 20.4371L27.5207 16.0819C27.9955 15.5413 28.2129 15.2254 28.3095 15.03C28.4088 14.8394 28.5367 14.4673 28.5976 14.2101C28.6585 13.9528 28.7025 13.5784 28.6975 13.3719C28.6924 13.1654 28.6288 12.8024 28.565 12.56C28.4965 12.3203 28.3992 12.0529 28.3524 11.972L28.2618 11.8149C29.0661 11.3506 29.4375 11.1805 29.6383 11.1217C29.8316 11.0609 30.1831 11.0102 30.4237 10.9982C30.6595 10.989 31.066 11.0335 31.3232 11.0944C31.5805 11.1553 31.9525 11.2832 32.1432 11.3825C32.3385 11.4791 32.6497 11.6993 32.842 11.8675C33.1308 12.1259 33.235 12.2624 33.4878 12.7003C33.7433 13.1429 33.804 13.2919 33.8806 13.6665C33.9246 13.9076 33.955 14.2898 33.9512 14.5141C33.9447 14.7336 33.8694 15.1198 33.7982 15.3703C33.7196 15.6187 33.5657 15.9677 33.4581 16.1441C33.3505 16.3204 33.169 16.5775 33.0537 16.7075C32.8529 16.9313 32.494 17.1449 26.8965 20.4083L20.9517 23.8723L20.8591 24.2176L23.378 28.6903C21.3256 29.9386 21.2903 29.9654 21.2461 30.1305L21.1998 30.3032L25.3599 37.5087C25.9053 37.9807 26.2512 38.2062 26.4793 38.3156C26.7075 38.425 27.057 38.5468 27.2515 38.5868C27.4507 38.6241 27.7896 38.6506 28.0104 38.6373C28.2339 38.6288 28.6167 38.5664 28.8659 38.4924C29.113 38.4259 29.4043 38.3148 29.5137 38.2516C29.628 38.1857 29.865 37.9917 30.0414 37.8137C30.2206 37.6404 30.4668 37.3524 30.5914 37.1726C30.7498 36.9414 30.8611 36.6615 30.9737 36.2411C31.0816 35.8234 31.1218 35.5083 31.1056 35.2385C31.0923 35.0177 31.0384 34.6935 30.9858 34.5144C30.9095 34.2285 30.6168 33.6995 28.8582 30.6535L26.8167 27.1174L26.3662 26.9967L24.2722 28.2057L22.0465 24.3507C32.4931 18.3194 33.2919 17.8455 33.5227 17.6298C33.6693 17.488 33.8823 17.2635 33.9949 17.1287C34.1047 16.9892 34.2611 16.7656 34.3416 16.6302C34.4222 16.4949 34.5511 16.2237 34.6307 16.0318C34.7103 15.8399 34.8105 15.5409 34.8493 15.3663C34.8928 15.1888 34.9317 14.8935 34.9479 14.7128C34.9642 14.5321 34.9511 14.1907 34.9323 13.9603C34.9136 13.73 34.8507 13.3793 34.7993 13.1805C34.7321 12.921 34.6047 12.6455 34.3492 12.2029C34.0579 11.6985 33.9317 11.5238 33.6627 11.2667C33.4847 11.0903 33.1386 10.8205 32.8952 10.6628C32.6136 10.4827 32.2591 10.3193 31.9253 10.2138C31.6365 10.1203 31.2176 10.0322 30.9946 10.0087C30.7744 9.98989 30.4172 9.9867 30.1991 10.0047C29.9811 10.0227 29.6085 10.0919 29.3689 10.1604C29.1292 10.229 28.6604 10.4171 28.3258 10.585L27.726 10.8869C27.5968 10.6632 27.4193 10.4547 27.2461 10.2755C27.0681 10.0991 26.7807 9.8652 26.6044 9.75761C26.4281 9.65001 26.0743 9.4989 25.8258 9.42025C25.5753 9.34912 25.209 9.27508 25.0112 9.26233C24.8135 9.24958 24.4047 9.28889 24.1077 9.34611L23.5677 9.45485Z" fill="#0086DB"></path></svg>